<svg width="89" height="29" viewBox="0 0 89 29" fill="none" xmlns="http://www.w3.org/2000/svg">
<rect x="0.5" y="0.5" width="88" height="28" rx="5.5" fill="white"/>
<rect x="0.5" y="0.5" width="88" height="28" rx="5.5" stroke="#FB4E73"/>
<path d="M14.7889 15.272V7.672H16.3249V15.768C16.3249 18.616 14.2769 19.288 13.0129 19.288C11.4129 19.288 10.2449 18.472 9.94088 16.808L11.4449 16.472C11.6209 17.32 12.1649 17.848 13.0129 17.848C14.5329 17.848 14.7889 16.552 14.7889 15.272ZM19.7716 15.208C19.7716 16.744 20.7316 17.848 22.2676 17.848C23.8036 17.848 24.7636 16.744 24.7636 15.208C24.7636 13.672 23.8036 12.568 22.2676 12.568C20.7316 12.568 19.7716 13.672 19.7716 15.208ZM18.2356 15.208C18.2356 13 20.0116 11.224 22.2676 11.224C24.5236 11.224 26.2996 13 26.2996 15.208C26.2996 17.416 24.5236 19.192 22.2676 19.192C20.0116 19.192 18.2356 17.416 18.2356 15.208ZM28.2156 19V11.416H29.6556V19H28.2156ZM27.8796 8.696C27.8796 8.12 28.3596 7.64 28.9356 7.64C29.5116 7.64 29.9916 8.12 29.9916 8.696C29.9916 9.272 29.5116 9.752 28.9356 9.752C28.3596 9.752 27.8796 9.272 27.8796 8.696ZM31.9474 19V11.416H33.3874V12.584H33.4194C33.7874 11.784 34.7474 11.224 35.9154 11.224C37.3874 11.224 38.6674 12.104 38.6674 14.12V19H37.2274V14.52C37.2274 13.096 36.4114 12.568 35.4994 12.568C34.2994 12.568 33.3874 13.336 33.3874 15.096V19H31.9474ZM52.0111 11.416V19H50.5711V17.832H50.5391C50.1711 18.632 49.2111 19.192 48.0431 19.192C46.5711 19.192 45.2911 18.312 45.2911 16.296V11.416H46.7311V15.896C46.7311 17.32 47.5471 17.848 48.4591 17.848C49.6591 17.848 50.5711 17.08 50.5711 15.32V11.416H52.0111ZM59.3338 12.472L58.2138 13.32C57.8778 12.904 57.3818 12.568 56.6618 12.568C55.9898 12.568 55.3978 12.872 55.3978 13.416C55.3978 14.328 56.6938 14.456 57.3338 14.6C58.5818 14.904 59.5418 15.384 59.5418 16.808C59.5418 18.52 57.9738 19.192 56.4698 19.192C55.2218 19.192 54.2938 18.872 53.5418 17.848L54.6298 16.952C55.0938 17.416 55.6378 17.848 56.4698 17.848C57.2057 17.848 58.0058 17.544 58.0058 16.888C58.0058 16.024 56.8058 15.864 56.1818 15.72C54.9498 15.416 53.8618 15.016 53.8618 13.56C53.8618 11.976 55.3178 11.224 56.7418 11.224C57.7498 11.224 58.7898 11.576 59.3338 12.472Z" fill="black"/>
<path d="M65.7966 14.4389C65.7962 15.6242 66.1059 16.7816 66.6949 17.8017L65.7402 21.2873L69.3072 20.352C70.2938 20.8891 71.3992 21.1705 72.5225 21.1706H72.5255C76.2337 21.1706 79.2524 18.1531 79.2539 14.4442C79.2546 12.6469 78.5554 10.9569 77.2849 9.68547C76.0146 8.41412 74.3252 7.71359 72.5252 7.71277C68.8165 7.71277 65.7981 10.7301 65.7966 14.4389" fill="url(#paint0_linear_79_366)"/>
<path d="M65.5585 14.4367C65.5581 15.6647 65.8789 16.8635 66.4889 17.9202L65.5 21.5307L69.1949 20.5619C70.213 21.1169 71.3592 21.4096 72.5256 21.41H72.5286C76.3699 21.41 79.4969 18.284 79.4986 14.4423C79.4992 12.5805 78.7748 10.8297 77.4589 9.51271C76.1429 8.19586 74.3931 7.47013 72.5286 7.46936C68.6866 7.46936 65.56 10.595 65.5585 14.4367ZM67.759 17.7382L67.621 17.5192C67.041 16.597 66.7349 15.5314 66.7354 14.4371C66.7366 11.244 69.3353 8.64612 72.5308 8.64612C74.0783 8.64677 75.5326 9.25002 76.6265 10.3445C77.7203 11.4392 78.3221 12.8942 78.3218 14.4419C78.3203 17.635 75.7216 20.2332 72.5286 20.2332H72.5263C71.4866 20.2327 70.467 19.9535 69.5777 19.4258L69.3661 19.3003L67.1735 19.8752L67.759 17.7382Z" fill="url(#paint1_linear_79_366)"/>
<path d="M70.7859 11.524C70.6554 11.234 70.5181 11.2281 70.3941 11.223C70.2925 11.2187 70.1763 11.219 70.0603 11.219C69.9441 11.219 69.7554 11.2627 69.5959 11.4369C69.4363 11.6112 68.9863 12.0324 68.9863 12.8893C68.9863 13.7461 69.6104 14.5742 69.6974 14.6905C69.7845 14.8066 70.9022 16.6211 72.6724 17.3192C74.1435 17.8993 74.4429 17.7839 74.7622 17.7549C75.0816 17.7259 75.7926 17.3337 75.9377 16.927C76.0829 16.5204 76.0829 16.1719 76.0394 16.099C75.9958 16.0265 75.8797 15.9829 75.7055 15.8958C75.5313 15.8087 74.6751 15.3874 74.5155 15.3293C74.3558 15.2712 74.2397 15.2422 74.1236 15.4166C74.0074 15.5907 73.6739 15.9829 73.5723 16.099C73.4707 16.2155 73.3691 16.2299 73.195 16.1428C73.0207 16.0555 72.4598 15.8718 71.7944 15.2785C71.2767 14.8169 70.9272 14.2468 70.8256 14.0725C70.724 13.8984 70.8147 13.804 70.902 13.7172C70.9802 13.6392 71.0762 13.5138 71.1634 13.4122C71.2502 13.3105 71.2792 13.2379 71.3373 13.1218C71.3954 13.0055 71.3663 12.9038 71.3228 12.8167C71.2792 12.7296 70.9408 11.8683 70.7859 11.524Z" fill="white"/>
<defs>
<linearGradient id="paint0_linear_79_366" x1="741.426" y1="1365.16" x2="741.426" y2="7.71277" gradientUnits="userSpaceOnUse">
<stop stop-color="#1FAF38"/>
<stop offset="1" stop-color="#60D669"/>
</linearGradient>
<linearGradient id="paint1_linear_79_366" x1="765.428" y1="1413.6" x2="765.428" y2="7.46936" gradientUnits="userSpaceOnUse">
<stop stop-color="#F9F9F9"/>
<stop offset="1" stop-color="white"/>
</linearGradient>
</defs>
</svg>
